<svg xmlns="http://www.w3.org/2000/svg" width="15" height="15" viewBox="0 0 15 15" fill="none">
  <path d="M13.488 0.415215C13.1285 0.415215 12.8888 0.535061 12.6491 0.774755L0.664351 12.7595C0.184962 13.2389 0.184962 13.9579 0.664351 14.4373C1.14374 14.9167 1.86282 14.9167 2.34221 14.4373L14.3269 2.45262C14.8063 1.97323 14.8063 1.25414 14.3269 0.774755C14.0872 0.535061 13.8475 0.415215 13.488 0.415215Z" fill="white"/>
  <path d="M13.4884 0.413977H2.70213C1.98305 0.413977 1.50366 0.893366 1.50366 1.61245C1.50366 2.33153 1.98305 2.81092 2.70213 2.81092H12.2899V12.3987C12.2899 13.1178 12.7693 13.5972 13.4884 13.5972C14.2075 13.5972 14.6869 13.1178 14.6869 12.3987V1.61245C14.6869 0.893366 14.2075 0.413977 13.4884 0.413977Z" fill="white"/>
</svg>